<?xml version="1.0" encoding="UTF-8" standalone="no"?>
<svg
   xmlns:dc="http://purl.org/dc/elements/1.1/"
   xmlns:cc="http://creativecommons.org/ns#"
   xmlns:rdf="http://www.w3.org/1999/02/22-rdf-syntax-ns#"
   xmlns:svg="http://www.w3.org/2000/svg"
   xmlns="http://www.w3.org/2000/svg"
   xmlns:sodipodi="http://sodipodi.sourceforge.net/DTD/sodipodi-0.dtd"
   xmlns:inkscape="http://www.inkscape.org/namespaces/inkscape"
   width="134.64149mm"
   height="55.905445mm"
   viewBox="0 0 134.6415 55.905445"
   version="1.1"
   id="svg8"
   inkscape:version="1.0.2-2 (e86c870879, 2021-01-15)"
   sodipodi:docname="KaiSignature.svg">
  <defs
     id="defs2">
    <inkscape:path-effect
       effect="bspline"
       id="path-effect86"
       is_visible="true"
       lpeversion="1"
       weight="33.333333"
       steps="2"
       helper_size="0"
       apply_no_weight="true"
       apply_with_weight="true"
       only_selected="false" />
    <inkscape:path-effect
       effect="bspline"
       id="path-effect82"
       is_visible="true"
       lpeversion="1"
       weight="33.333333"
       steps="2"
       helper_size="0"
       apply_no_weight="true"
       apply_with_weight="true"
       only_selected="false" />
    <inkscape:path-effect
       effect="bspline"
       id="path-effect78"
       is_visible="true"
       lpeversion="1"
       weight="33.333333"
       steps="2"
       helper_size="0"
       apply_no_weight="true"
       apply_with_weight="true"
       only_selected="false" />
    <inkscape:path-effect
       effect="bspline"
       id="path-effect74"
       is_visible="true"
       lpeversion="1"
       weight="33.333333"
       steps="2"
       helper_size="0"
       apply_no_weight="true"
       apply_with_weight="true"
       only_selected="false" />
    <inkscape:path-effect
       effect="spiro"
       id="path-effect14"
       is_visible="true"
       lpeversion="1" />
  </defs>
  <sodipodi:namedview
     id="base"
     pagecolor="#ffffff"
     bordercolor="#666666"
     borderopacity="1.0"
     inkscape:pageopacity="0.0"
     inkscape:pageshadow="2"
     inkscape:zoom="1.4"
     inkscape:cx="221.25009"
     inkscape:cy="186.22474"
     inkscape:document-units="mm"
     inkscape:current-layer="layer1"
     inkscape:document-rotation="0"
     showgrid="false"
     inkscape:window-width="2560"
     inkscape:window-height="1017"
     inkscape:window-x="-8"
     inkscape:window-y="1072"
     inkscape:window-maximized="1"
     fit-margin-top="0"
     fit-margin-left="0"
     fit-margin-right="0"
     fit-margin-bottom="0" />
  <metadata
     id="metadata5">
    <rdf:RDF>
      <cc:Work
         rdf:about="">
        <dc:format>image/svg+xml</dc:format>
        <dc:type
           rdf:resource="http://purl.org/dc/dcmitype/StillImage" />
        <dc:title></dc:title>
      </cc:Work>
    </rdf:RDF>
  </metadata>
  <g
     inkscape:label="Layer 1"
     inkscape:groupmode="layer"
     id="layer1">
    <path
       style="fill:#000000;stroke-width:0.264583"
       d="M 14.419792,54.724516 C 7.9312888,53.175546 4.8775119,51.095466 2.80009,46.809766 0.71203197,42.502126 0,38.929826 0,32.761576 c 0,-5.97752 1.077053,-11.07414 3.3459569,-15.83309 0.3425361,-0.71846 0.622793,-1.39444 0.622793,-1.50218 0,-0.31415 3.516476,-7.6810001 4.166722,-8.7290901 1.2528081,-2.01931 2.3441311,-2.68085 3.6168471,-2.19247 0.586871,0.22521 0.523251,0.89774 -0.08492,0.89774 -0.9387,0 -3.1032242,3.8394702 -6.040996,10.7156201 -3.186495,7.45832 -3.797973,10.19243 -3.789346,16.94336 0.0087,6.8334 1.093719,11.38678 3.666985,15.3893 2.9155999,4.53499 10.730954,6.68319 15.503244,4.26137 3.259616,-1.65418 4.914472,-3.25477 6.166237,-5.96405 1.797014,-3.88941 1.873155,-4.28301 1.600257,-8.2727 -0.343628,-5.02379 -0.567083,-5.99744 -1.725762,-7.51946 -1.524403,-2.00245 -1.708693,-2.04904 -3.031057,-0.76638 -2.539865,2.46362 -6.370941,3.87567 -10.523207,3.87864 -2.162793,0.002 -2.716606,-0.0945 -3.96875,-0.68826 -2.4760641,-1.17416 -3.9028401,-2.802 -3.9983661,-4.56182 -0.0798,-1.47004 0.1794,-2.10102 1.16447,-2.83473 2.3903509,-1.78041 5.1408381,-2.85381 7.3126131,-2.85381 3.211623,0 8.632837,1.49261 9.698631,2.6703 0.899963,0.99444 1.321851,0.65041 2.706799,-2.20728 0.722885,-1.49159 1.682455,-3.84307 2.132381,-5.22552 1.147709,-3.52645 3.843811,-14.9305601 3.689611,-15.6064901 -0.139036,-0.60946 0.768222,-0.60665 1.379139,0.004 0.383434,0.38343 0.518491,0.75666 0.412781,1.14074 -0.323735,1.17625 -2.056767,8.5292601 -2.130051,9.0375201 -0.516216,3.58015 -3.386153,11.37483 -5.163133,14.02291 -0.292951,0.43656 -0.533424,0.87802 -0.534381,0.98101 -0.0011,0.103 0.586977,0.81737 1.306526,1.5875 2.202904,2.35777 2.594163,3.42905 2.927191,8.01482 0.15852,2.18282 0.02132,4.02223 -0.02637,5.42443 -0.04467,1.31367 -1.807368,5.31865 -2.820099,6.70141 -1.024461,1.39878 -4.117758,3.60184 -6.280021,4.47265 -1.297415,0.52252 -5.599826,0.88299 -6.882928,0.57668 z m 2.371576,-22.47144 c 2.547034,-0.73811 4.495195,-1.8751 6.09509,-3.55725 1.058334,-1.11274 1.058334,-1.11274 0.0345,-2.00583 -1.118315,-0.97551 -2.470132,-1.47539 -5.351555,-1.97892 -2.819216,-0.49266 -4.738597,-0.26451 -6.849316,0.81414 -2.6206142,1.33923 -3.0471751,1.81145 -3.0471751,3.37331 0,1.08839 0.1314219,1.43383 0.819379,2.15371 1.8735321,1.96047 4.4108331,2.3276 8.2990721,1.20084 z m 58.382116,21.32882 c -0.23976,-0.15185 -0.31171,-0.49101 -0.20961,-0.98813 0.0855,-0.41631 0.39669,-1.94754 0.69152,-3.40275 0.29483,-1.45521 0.648831,-3.12208 0.78667,-3.70417 0.13784,-0.58208 0.615509,-3.02286 1.0615,-5.42396 0.91646,-4.93406 1.70291,-8.84876 2.2856,-11.37707 0.21799,-0.94589 0.44921,-1.95792 0.513809,-2.24896 0.0646,-0.29104 0.239851,-1.06495 0.389441,-1.71979 0.14959,-0.65484 0.38801,-1.96453 0.529829,-2.91042 0.141821,-0.94588 0.42739,-2.55322 0.634591,-3.57187 0.2072,-1.01865 0.62617,-3.63802 0.93103,-5.82083 0.304859,-2.18282 0.667189,-4.3619501 0.805179,-4.8425101 0.19708,-0.68636 0.16887,-0.90524 -0.131499,-1.0205 -0.56156,-0.21549 -0.46569,-1.25562 0.168629,-1.82968 0.303061,-0.27426 0.713701,-0.88802 0.912541,-1.36392 0.2942,-0.70412 0.509059,-0.86527 1.15366,-0.86527 0.43567,0 1.18589,-0.23083 1.667149,-0.51296 0.48126,-0.28213 1.82752,-0.8342 2.991681,-1.22682998 1.76831,-0.59638997 2.60943,-0.71879997 5.11072,-0.74380997 2.99405,-0.0299 2.99405,-0.0299 3.7397,0.88184997 0.410107,0.50147998 1.014386,1.67297998 1.342826,2.60333998 0.50266,1.42384 0.57189,2.01936 0.43745,3.76285 -0.18405,2.3866702 -0.82764,4.4129501 -1.924577,6.0593501 -0.422739,0.63449 -0.96041,1.44011 -1.194839,1.79026 -1.355061,2.02401 -5.85994,7.04317 -10.95086,12.20102 -3.20146,3.24355 -5.968191,6.22011 -6.14829,6.61458 -0.28275,0.6193 -2.24373,10.34602 -3.39846,16.8568 -0.26974,1.52086 -0.532571,2.247 -0.93374,2.57969 -0.63335,0.52522 -0.752291,0.54631 -1.26165,0.22369 z m 11.611929,-28.27077 c 10.03238,-10.16108 12.520298,-13.95416 12.537657,-19.1148901 0.006,-1.81926 -0.104386,-2.46212 -0.578406,-3.36459 -0.68878,-1.31137 -1.243261,-1.66316 -2.61737,-1.66064 -2.520221,0.005 -8.07348,1.93007 -9.78297,3.39197 -0.43402,0.37117 -0.702821,1.18235 -1.1187,3.37601 -0.54882,2.8948701 -1.19104,7.3255701 -1.49235,10.2957901 -0.167861,1.65458 -0.5246,3.54761 -1.60158,8.49852 -0.69688,3.20361 -0.73893,3.54064 -0.44159,3.53876 0.10914,-7.9e-4 2.40203,-2.23311 5.095309,-4.96093 z m 33.775817,30.128637 c -1.60941,-1.06111 -2.41602,-3.67221 -1.77605,-5.7493 1.0973,-3.56139 3.22251,-8.11075 5.7391,-12.28549 1.40231,-2.32626 1.6813,-2.98617 1.67793,-3.96874 -0.006,-1.77797 -0.3577,-2.12761 -1.0302,-1.02449 -0.3032,0.49735 -0.55172,0.99052 -0.55226,1.09592 -0.002,0.29491 -1.49402,0.99898 -2.11766,0.99898 -0.73291,0 -2.07357,-0.69009 -2.97037,-1.52898 -0.72142,-0.67483 -0.72142,-0.67483 -1.63588,0.29479 -0.67286,0.71343 -1.13234,0.96961 -1.73912,0.96961 -0.90924,0 -2.10343,-0.53149 -2.63599,-1.17318 -0.48184,-0.58059 -0.62973,-0.52573 -1.03188,0.38278 -0.46849,1.05839 -1.01797,1.31176 -2.32605,1.07256 -1.11317,-0.20356 -1.99893,-0.84873 -2.29442,-1.67122 -0.1752,-0.48765 -0.71212,-0.64421 -0.71212,-0.20765 0,0.14046 -0.36953,0.67624 -0.82116,1.19063 -1.05689,1.20372 -2.10628,1.24873 -3.61602,0.15508 -1.07699,-0.78017 -1.07699,-0.78017 -1.76453,0.12125 -0.72485,0.95032 -1.995986,1.39309 -3.044246,1.06038 -1.368651,-0.43439 -3.024785,-2.13261 -3.189341,-4.34099 -0.164556,-2.20838 1.632611,-5.13779 3.68241,-6.98967 0.894168,-0.80783 1.278918,-0.97705 2.221467,-0.97705 1.47691,0 2.45634,0.79742 2.00811,1.63494 -0.17567,0.32825 -0.23407,1.15267 -0.14435,2.03785 0.0829,0.81762 0.15496,2.28837 0.1602,3.26834 0.008,1.57717 0.0959,1.87847 0.76195,2.62386 1.22133,1.36691 2.22819,0.47571 2.81451,-2.49123 0.42867,-2.16913 1.5247,-5.84095 1.80342,-6.04161 0.12106,-0.0872 0.51136,-0.10281 0.86731,-0.0348 0.78523,0.1501 1.13047,1.19158 0.60492,1.82483 -0.25687,0.30951 -0.36028,1.2878 -0.36028,3.40837 0,2.55352 0.0713,3.05305 0.50403,3.53121 0.27721,0.30632 0.6121,0.55694 0.7442,0.55694 0.44241,0 1.81511,-3.46016 2.23917,-5.6443 0.5589,-2.87862 0.51246,-2.74959 1.10329,-3.06579 0.40371,-0.21606 0.65621,-0.16739 1.13246,0.21825 0.61291,0.49631 0.61291,0.49631 0.0219,2.17897 -0.7088,2.018 -0.75422,3.85718 -0.12264,4.96684 0.88038,1.54683 2.21941,0.71402 2.9407,-1.82897 1.00465,-3.54204 1.26274,-4.09885 1.93771,-4.18056 1.05335,-0.12749 1.34536,0.46979 0.8777,1.79527 -0.21906,0.6209 -0.3983,1.70737 -0.3983,2.41439 0,1.03269 0.14308,1.44223 0.7276,2.08265 0.40019,0.43845 1.01974,0.82728 1.37679,0.86407 0.56672,0.0584 0.82812,-0.25237 2.05792,-2.44665 1.08925,-1.94348 1.37685,-2.68715 1.26809,-3.27902 -0.0774,-0.42101 -0.007,-0.92703 0.15728,-1.12448 0.36653,-0.44163 1.4554,-0.47135 1.71774,-0.0469 0.10609,0.17166 0.17422,1.5493 0.15141,3.06143 -0.0335,2.22366 0.0287,2.7331 0.32552,2.66445 0.3592,-0.0831 4.5143,-4.71986 5.06347,-5.65048 0.20777,-0.35207 0.45875,-0.42595 0.99219,-0.29206 1.08497,0.27231 0.89013,1.01554 -0.68142,2.59927 -0.76753,0.77348 -2.25563,2.43268 -3.30689,3.68712 -1.9114,2.28079 -1.9114,2.28079 -1.90369,7.80519 0.009,6.63037 -0.18039,8.0389 -1.49552,11.10729 -1.76199,4.11099 -3.96902,5.71575 -6.0101,4.37004 z m 2.53815,-1.61529 c 1.53991,-1.79849 2.73338,-4.84883 3.1388,-8.02234 0.26145,-2.04649 0.34552,-7.56666 0.11869,-7.79349 -0.31351,-0.31351 -0.9792,0.65692 -2.46096,3.58758 -2.89734,5.7304 -3.93791,9.16306 -3.41241,11.25685 0.3643,1.45145 1.76081,1.97004 2.61588,0.9714 z m -23.556669,-20.5746 c 1.084559,-1.23694 1.281419,-2.09103 1.128059,-4.89415 -0.23006,-4.20519 -0.4096,-4.40352 -2.105116,-2.32544 -1.196181,1.46607 -1.9423,3.33885 -1.97223,4.95033 -0.0372,2.00306 1.885549,3.48247 2.949287,2.26926 z m -61.045836,2.858693 c -1.551188,-0.41456 -2.172498,-0.77458 -3.190267,-1.84863 -1.880438,-1.98443 -2.086935,-2.98523 -1.193182,-5.78291 0.746722,-2.33745 1.166161,-3.0248 2.671971,-4.37864 1.430954,-1.28656 2.549374,-1.67377 4.026582,-1.39405 1.069647,0.20253 2.470384,1.28285 2.209878,1.70436 -0.272423,0.44079 -1.206361,0.38118 -1.386592,-0.0885 -0.259647,-0.67663 -1.760545,-0.47499 -2.9664,0.39853 -0.603917,0.43748 -1.411028,1.08478 -1.804713,1.63415 -0.793041,1.10666 -1.523489,4.23698 -1.252113,5.68352 0.102195,0.54476 0.583481,1.36166 1.158152,1.96576 1.213571,1.27572 2.334593,1.37898 3.844785,0.35414 1.298367,-0.88109 1.827703,-1.52557 2.651728,-3.22852 0.661186,-1.36642 0.670497,-1.46675 0.462585,-4.98408 -0.116702,-1.97427 -0.114163,-3.65017 0.0057,-3.72422 0.11981,-0.074 0.564926,0.009 0.989145,0.18486 0.87589,0.3628 0.949881,0.64366 1.149086,4.36168 0.191653,3.57707 1.736455,6.74688 3.288077,6.74688 1.032497,0 2.320396,-0.96373 3.283501,-2.45702 1.307275,-2.02694 1.864701,-3.89441 1.9432,-6.51001 0.06177,-2.05815 0.120119,-2.2857 0.605187,-2.36017 0.295258,-0.0453 0.779889,0.16064 1.076963,0.45772 0.465969,0.46596 0.520542,0.76792 0.397436,2.19908 -0.363646,4.22757 0.01503,6.81073 1.270775,8.66884 0.806496,1.19334 1.649439,1.3687 5.049076,1.05035 1.572593,-0.14726 2.971577,-0.19833 3.108854,-0.11349 0.474328,0.29315 0.247228,0.93078 -0.422164,1.18528 -0.963728,0.36641 -5.927469,0.37108 -6.868863,0.006 -1.072795,-0.41551 -2.44369,-1.76635 -3.098417,-3.05309 -0.296178,-0.58209 -0.581681,-1.10623 -0.634455,-1.16476 -0.05277,-0.0585 -0.782278,0.63419 -1.621124,1.5394 -1.448021,1.56257 -1.599665,1.65322 -2.997808,1.79205 -1.7806,0.17682 -2.702259,-0.22773 -4.016293,-1.76288 -0.501507,-0.5859 -1.019474,-1.0622 -1.151036,-1.05845 -0.131561,0.004 -0.633094,0.58768 -1.114517,1.29762 -1.488662,2.19527 -3.535757,3.1969 -5.474685,2.67873 z m 14.958121,-18.88091 c -0.921406,-0.31736 -2.008144,-1.60686 -2.285502,-2.71195 -0.268632,-1.07031 0.425554,-2.8444 1.521219,-3.8877 0.933394,-0.8887903 1.187064,-0.9921899 2.434103,-0.9921899 0.974107,0 1.81283,0.2096496 2.793214,0.6981999 3.366093,1.67739 3.107704,4.72878 -0.554978,6.55397 -1.492753,0.74387 -2.484288,0.83005 -3.908056,0.33967 z m 2.610536,-1.36062 c 1.164566,-0.60222 2.407386,-2.17484 2.407386,-3.04622 0,-1.62121 -2.19576,-2.37651 -3.895665,-1.34004 -1.456628,0.88815 -2.048351,3.26791 -1.097452,4.41368 0.387609,0.46704 1.655559,0.45359 2.585731,-0.0274 z"
       id="path1005"
       sodipodi:nodetypes="cssssssssssssssscsssssssscssscsssssccssssssssssssssssssssssssssssssssssssssscscsssscscsscscssssssssssssszssssccsscssssssssssssssssscssssssscsccssssssssssscsssssssssssssscssssssssssscssssscsccsssssssssssss" />
  </g>
</svg>
